<?xml version="1.0" encoding="UTF-8"?>
<svg width="512" height="512" viewBox="0 0 512 512" fill="none" xmlns="http://www.w3.org/2000/svg">
  <path d="M256 512C397.385 512 512 397.385 512 256C512 114.615 397.385 0 256 0C114.615 0 0 114.615 0 256C0 397.385 114.615 512 256 512Z" fill="#FFFFFF"/>
  <path d="M391.546 154.424C391.546 154.424 314.722 129.143 287.845 196.541C283.124 208.084 281.267 220.568 282.47 232.932L282.478 232.978C282.478 232.978 285.401 225.093 290.07 221.183C294.74 217.274 297.957 215.965 297.957 215.965C297.957 215.965 294.945 227.815 296.05 235.243C297.155 242.671 298.669 245.838 298.669 245.838C298.669 245.838 300.799 238.207 306.086 229.868C312.138 220.362 319.409 217.274 319.409 217.274C319.409 217.274 314.58 227.814 313.172 240.318C312.167 248.996 314.128 256.12 314.128 256.12C314.128 256.12 317.143 246.386 320.86 240.612C325.025 234.081 330.354 228.51 336.545 224.195C344.374 218.889 349.599 218.79 349.599 218.79C349.599 218.79 344.421 227.815 342.408 237.252C340.394 246.689 339.996 258.735 339.996 258.735C339.996 258.735 344.126 255.265 347.939 251.095C351.751 246.924 356.715 242.163 356.715 242.163C356.715 242.163 355.6 255.418 355.6 262.551C355.6 269.683 356.411 276.405 356.411 276.405C356.411 276.405 363.136 269.577 365.747 259.432C368.357 249.286 368.058 240.957 368.058 240.957C368.058 240.957 375.987 252.053 375.987 267.921C375.987 283.79 368.953 293.582 368.953 293.582C368.953 293.582 378.246 291.268 383.359 284.741C388.472 278.214 393.091 264.707 392.651 252.556C392.21 240.405 391.546 154.424 391.546 154.424Z" fill="#FFD800"/>
  <path d="M345.815 325.85C334.879 341.412 323.057 350.152 303.722 350.152C289.272 350.152 282.142 346.527 250.462 330.953L222.799 350.152H194.24C166.923 345.571 149.937 322.977 145.851 312.38V282.63C153.071 273.689 160.885 267.667 172.883 264.737C186.868 261.361 192.426 271.903 196.806 280.475C201.97 290.574 214.114 305.247 231.689 316.053C251.576 328.19 275.112 316.303 290.513 304.747C303.174 295.399 312.732 302.128 324.584 311.77C334.533 319.913 340.148 323.186 345.815 325.85Z" fill="#33BBC7"/>
  <path d="M252.237 184.044C217.953 188.568 168.794 220.061 156.643 259.379C142.362 306.359 165.514 351.824 224.892 359.947C271.079 366.268 298.466 363.077 351.782 354.385C405.097 345.693 409.42 281.372 390.136 247.623C370.852 213.874 321.846 174.757 252.237 184.044Z" stroke="#000000" stroke-width="12" stroke-miterlimit="10"/>
  <path d="M165.808 298.407C163.493 290.872 162.228 284.192 163.743 269.48C165.258 254.768 173.995 234.736 185.094 225.696C196.194 216.656 203.728 212.235 212.17 209.227C220.611 206.219 233.114 199.387 252.394 202.694C271.673 206 302.758 218.972 326.764 232.839C350.771 246.707 361.722 263.845 367.872 278.557C374.022 293.27 375.388 314.705 365.705 328.221C350.03 350.5 326.765 346.595 309.602 352.829C292.439 359.064 275.276 360.468 233.264 362.172C191.251 363.876 170.191 345.944 165.808 298.407Z" stroke="#000000" stroke-width="12" stroke-miterlimit="10"/>
</svg>